<svg xmlns="http://www.w3.org/2000/svg"  viewBox="0 0 24 24" width="24px" height="24px"><path fill="#1d1d1b" d="M9.024,9.38c-0.902,0-1.644,1.041-1.644,2.307s0.742,2.306,1.644,2.306s1.643-1.041,1.643-2.306 S9.925,9.38,9.024,9.38z"/><path fill="#1d1d1b" d="M14.966,9.38c-0.902,0-1.644,1.041-1.644,2.307s0.742,2.306,1.644,2.306 c0.902,0,1.643-1.041,1.643-2.306S15.867,9.38,14.966,9.38z"/><path d="M20.271,6.263c-0.006-0.01-0.012-0.02-0.019-0.029c-0.367-0.547-0.887-0.965-1.503-1.208	C17.605,4.573,16.62,4.271,15.737,4.1c-0.797-0.15-1.581,0.195-1.978,0.84c-1.479-0.135-2.759-0.067-3.52,0.005	C9.806,4.29,9.034,3.953,8.271,4.1C7.385,4.271,6.399,4.575,5.257,5.027c-0.615,0.244-1.135,0.662-1.502,1.21	c-2.202,3.286-3.065,6.831-2.638,10.836c0.032,0.306,0.204,0.58,0.465,0.743c1.648,1.027,3.143,1.763,4.568,2.25	c0.827,0.282,1.736-0.034,2.218-0.766l0.516-0.782c0.101,0.024,0.207,0.035,0.308,0.057c0.93,0.265,1.891,0.41,2.859,0.41	c1.025,0,2.04-0.169,3.021-0.465c0.008-0.002,0.017-0.003,0.025-0.005l0.55,0.809c0.365,0.539,0.97,0.846,1.593,0.846	c0.204,0,0.409-0.033,0.609-0.101c1.43-0.488,2.927-1.225,4.578-2.254c0.261-0.163,0.433-0.437,0.465-0.743	C23.317,13.079,22.461,9.542,20.271,6.263z M20.948,16.376c-1.327,0.797-2.535,1.381-3.68,1.778l-0.286-0.421	c0.092-0.049,0.19-0.085,0.281-0.137c0.48-0.274,0.647-0.884,0.373-1.364c-0.272-0.48-0.884-0.649-1.363-0.373	c-0.577,0.329-1.193,0.574-1.824,0.756c-0.805,0.186-1.615,0.285-2.438,0.302c-0.806-0.016-1.592-0.136-2.362-0.303	c-0.63-0.182-1.245-0.426-1.821-0.755c-0.481-0.276-1.092-0.107-1.363,0.373c-0.274,0.48-0.107,1.09,0.373,1.364	c0.063,0.036,0.132,0.061,0.195,0.095L6.73,18.151c-1.156-0.401-2.334-0.97-3.67-1.774c-0.258-3.322,0.515-6.279,2.356-9.027	C5.558,7.14,5.756,6.98,5.993,6.886c1.025-0.406,1.896-0.675,2.584-0.83L8.823,6.5c0.203,0.365,0.619,0.563,1.031,0.503	c0.211-0.032,2.138-0.301,4.384,0.003c0.456,0.062,0.885-0.188,1.059-0.608l0.133-0.32c0.742,0.15,1.589,0.415,2.584,0.808	c0.23,0.091,0.425,0.245,0.565,0.445c0.004,0.007,0.009,0.014,0.013,0.021C20.434,10.098,21.206,13.056,20.948,16.376z"/><path d="M8.796,5.034L10.1,5.965l4.659-0.186l1.211-1.025l3.168,1.491c0,0,2.329,2.982,2.609,5.031s0.093,5.404,0.093,5.404 l-4.845,2.516l-1.118-1.77l-7.734-0.093l-1.584,2.236l-4.1-2.516c0,0,0.093-5.963,0.932-8.013s2.143-3.261,2.143-3.261 S8.702,5.22,8.796,5.034z" opacity=".3"/></svg>