<svg xmlns="http://www.w3.org/2000/svg"  viewBox="0 0 24 24" width="24px" height="24px"><path d="M19.503,3.421C17.662,3.2,15.131,3,12,3S6.338,3.2,4.497,3.421C2.496,3.661,1,5.374,1,7.39v9.221	c0,2.015,1.496,3.728,3.497,3.969C6.338,20.8,8.869,21,12,21s5.662-0.2,7.503-0.421C21.504,20.338,23,18.626,23,16.61V7.39	C23,5.374,21.504,3.661,19.503,3.421z" opacity=".35"/><path d="M15.52,11.104l-4.846-3.231c-0.331-0.22-0.757-0.242-1.105-0.054C9.219,8.007,9,8.372,9,8.769v6.462	c0,0.398,0.219,0.762,0.569,0.95c0.159,0.085,0.334,0.127,0.508,0.127c0.209,0,0.417-0.061,0.597-0.181l4.846-3.231	C15.82,12.696,16,12.36,16,12S15.82,11.304,15.52,11.104z"/></svg>